<svg id="default-checkbox-filled" width="32" height="32" viewBox="0 0 32 32" xmlns="http://www.w3.org/2000/svg"><path fill="currentColor" d="M2.002 0h27.996C31.104 0 32 .89 32 2.002v27.996C32 31.104 31.11 32 29.998 32H2.002C.896 32 0 31.11 0 29.998V2.002C0 .896.89 0 2.002 0zM7.19 13.35c-.392-.392-1.032-.388-1.42 0l-3.06 3.06c-.392.392-.393 1.027 0 1.42l7.13 7.13 1.53 1.53c.393.393 1.02.4 1.412.008L29.298 9.982c.387-.387.38-1.024-.008-1.412l-3.06-3.06c-.392-.392-1.03-.39-1.414-.006L12.08 18.24l-4.89-4.89z"/><rect fill="none" x="0" y="0" width="32" height="32"></rect></svg>